<?xml version="1.0" encoding="utf-8" standalone="no"?>
<!DOCTYPE svg PUBLIC "-//W3C//DTD SVG 1.1//EN"
  "http://www.w3.org/Graphics/SVG/1.1/DTD/svg11.dtd">
<svg xmlns:xlink="http://www.w3.org/1999/xlink" width="576pt" height="432pt" viewBox="0 0 576 432" xmlns="http://www.w3.org/2000/svg" version="1.1">
 <metadata>
  <rdf:RDF xmlns:dc="http://purl.org/dc/elements/1.1/" xmlns:cc="http://creativecommons.org/ns#" xmlns:rdf="http://www.w3.org/1999/02/22-rdf-syntax-ns#">
   <cc:Work>
    <dc:type rdf:resource="http://purl.org/dc/dcmitype/StillImage"/>
    <dc:date>2025-04-29T00:36:41.205935</dc:date>
    <dc:format>image/svg+xml</dc:format>
    <dc:creator>
     <cc:Agent>
      <dc:title>Matplotlib v3.5.1, https://matplotlib.org/</dc:title>
     </cc:Agent>
    </dc:creator>
   </cc:Work>
  </rdf:RDF>
 </metadata>
 <defs>
  <style type="text/css">*{stroke-linejoin: round; stroke-linecap: butt}</style>
 </defs>
 <g id="figure_1">
  <g id="patch_1">
   <path d="M 0 432 
L 576 432 
L 576 0 
L 0 0 
z
" style="fill: #ffffff"/>
  </g>
  <g id="axes_1">
   <g id="patch_2">
    <path d="M 133.741562 90.500865 
Q 297.041506 160.035034 458.284124 228.693181 
" clip-path="url(#pa517a022df)" style="fill: none; stroke: #808080; stroke-opacity: 0.8; stroke-width: 2; stroke-linecap: round"/>
    <path d="M 452.490691 221.878775 
L 458.284124 228.693181 
L 449.356539 229.239284 
L 452.490691 221.878775 
z
" clip-path="url(#pa517a022df)" style="fill: #808080; fill-opacity: 0.8; stroke: #808080; stroke-opacity: 0.8; stroke-width: 2; stroke-linecap: round"/>
   </g>
   <g id="patch_3">
    <path d="M 134.55219 88.31089 
Q 297.106106 140.22327 457.529939 191.455397 
" clip-path="url(#pa517a022df)" style="fill: none; stroke: #808080; stroke-opacity: 0.8; stroke-width: 2; stroke-linecap: round"/>
    <path d="M 451.125992 185.211242 
L 457.529939 191.455397 
L 448.692247 192.832061 
L 451.125992 185.211242 
z
" clip-path="url(#pa517a022df)" style="fill: #808080; fill-opacity: 0.8; stroke: #808080; stroke-opacity: 0.8; stroke-width: 2; stroke-linecap: round"/>
   </g>
   <g id="patch_4">
    <path d="M 134.55219 127.583617 
Q 297.106106 179.495997 457.529939 230.728124 
" clip-path="url(#pa517a022df)" style="fill: none; stroke: #808080; stroke-opacity: 0.8; stroke-width: 2; stroke-linecap: round"/>
    <path d="M 451.125992 224.483969 
L 457.529939 230.728124 
L 448.692247 232.104788 
L 451.125992 224.483969 
z
" clip-path="url(#pa517a022df)" style="fill: #808080; fill-opacity: 0.8; stroke: #808080; stroke-opacity: 0.8; stroke-width: 2; stroke-linecap: round"/>
   </g>
   <g id="patch_5">
    <path d="M 135.188307 125.183904 
Q 297.156133 159.667376 456.936909 193.685219 
" clip-path="url(#pa517a022df)" style="fill: none; stroke: #808080; stroke-opacity: 0.8; stroke-width: 2; stroke-linecap: round"/>
    <path d="M 449.945225 188.107016 
L 456.936909 193.685219 
L 448.279336 195.931644 
L 449.945225 188.107016 
z
" clip-path="url(#pa517a022df)" style="fill: #808080; fill-opacity: 0.8; stroke: #808080; stroke-opacity: 0.8; stroke-width: 2; stroke-linecap: round"/>
   </g>
   <g id="patch_6">
    <path d="M 135.188307 164.456631 
Q 297.156133 198.940103 456.936909 232.957946 
" clip-path="url(#pa517a022df)" style="fill: none; stroke: #808080; stroke-opacity: 0.8; stroke-width: 2; stroke-linecap: round"/>
    <path d="M 449.945225 227.379743 
L 456.936909 232.957946 
L 448.279336 235.204372 
L 449.945225 227.379743 
z
" clip-path="url(#pa517a022df)" style="fill: #808080; fill-opacity: 0.8; stroke: #808080; stroke-opacity: 0.8; stroke-width: 2; stroke-linecap: round"/>
   </g>
   <g id="patch_7">
    <path d="M 135.599251 161.897516 
Q 297.190106 179.099123 456.557457 196.064034 
" clip-path="url(#pa517a022df)" style="fill: none; stroke: #808080; stroke-opacity: 0.8; stroke-width: 2; stroke-linecap: round"/>
    <path d="M 449.025817 191.239679 
L 456.557457 196.064034 
L 448.178989 199.194733 
L 449.025817 191.239679 
z
" clip-path="url(#pa517a022df)" style="fill: #808080; fill-opacity: 0.8; stroke: #808080; stroke-opacity: 0.8; stroke-width: 2; stroke-linecap: round"/>
   </g>
   <g id="patch_8">
    <path d="M 135.599251 201.170243 
Q 297.190106 218.37185 456.557457 235.336762 
" clip-path="url(#pa517a022df)" style="fill: none; stroke: #808080; stroke-opacity: 0.8; stroke-width: 2; stroke-linecap: round"/>
    <path d="M 449.025817 230.512406 
L 456.557457 235.336762 
L 448.178989 238.46746 
L 449.025817 230.512406 
z
" clip-path="url(#pa517a022df)" style="fill: #808080; fill-opacity: 0.8; stroke: #808080; stroke-opacity: 0.8; stroke-width: 2; stroke-linecap: round"/>
   </g>
   <g id="patch_9">
    <path d="M 135.739985 198.523636 
Q 297.20177 198.523636 456.427487 198.523636 
" clip-path="url(#pa517a022df)" style="fill: none; stroke: #808080; stroke-opacity: 0.8; stroke-width: 2; stroke-linecap: round"/>
    <path d="M 448.427487 194.523636 
L 456.427487 198.523636 
L 448.427487 202.523636 
L 448.427487 194.523636 
z
" clip-path="url(#pa517a022df)" style="fill: #808080; fill-opacity: 0.8; stroke: #808080; stroke-opacity: 0.8; stroke-width: 2; stroke-linecap: round"/>
   </g>
   <g id="patch_10">
    <path d="M 135.739985 237.796364 
Q 297.20177 237.796364 456.427487 237.796364 
" clip-path="url(#pa517a022df)" style="fill: none; stroke: #808080; stroke-opacity: 0.8; stroke-width: 2; stroke-linecap: round"/>
    <path d="M 448.427487 233.796364 
L 456.427487 237.796364 
L 448.427487 241.796364 
L 448.427487 233.796364 
z
" clip-path="url(#pa517a022df)" style="fill: #808080; fill-opacity: 0.8; stroke: #808080; stroke-opacity: 0.8; stroke-width: 2; stroke-linecap: round"/>
   </g>
   <g id="patch_11">
    <path d="M 135.599251 235.149757 
Q 297.190106 217.94815 456.557457 200.983238 
" clip-path="url(#pa517a022df)" style="fill: none; stroke: #808080; stroke-opacity: 0.8; stroke-width: 2; stroke-linecap: round"/>
    <path d="M 448.178989 197.85254 
L 456.557457 200.983238 
L 449.025817 205.807594 
L 448.178989 197.85254 
z
" clip-path="url(#pa517a022df)" style="fill: #808080; fill-opacity: 0.8; stroke: #808080; stroke-opacity: 0.8; stroke-width: 2; stroke-linecap: round"/>
   </g>
   <g id="patch_12">
    <path d="M 135.599251 274.422484 
Q 297.190106 257.220877 456.557457 240.255966 
" clip-path="url(#pa517a022df)" style="fill: none; stroke: #808080; stroke-opacity: 0.8; stroke-width: 2; stroke-linecap: round"/>
    <path d="M 448.178989 237.125267 
L 456.557457 240.255966 
L 449.025817 245.080321 
L 448.178989 237.125267 
z
" clip-path="url(#pa517a022df)" style="fill: #808080; fill-opacity: 0.8; stroke: #808080; stroke-opacity: 0.8; stroke-width: 2; stroke-linecap: round"/>
   </g>
   <g id="patch_13">
    <path d="M 135.188307 311.136096 
Q 297.156133 276.652624 456.936909 242.634781 
" clip-path="url(#pa517a022df)" style="fill: none; stroke: #808080; stroke-opacity: 0.8; stroke-width: 2; stroke-linecap: round"/>
    <path d="M 448.279336 240.388356 
L 456.936909 242.634781 
L 449.945225 248.212984 
L 448.279336 240.388356 
z
" clip-path="url(#pa517a022df)" style="fill: #808080; fill-opacity: 0.8; stroke: #808080; stroke-opacity: 0.8; stroke-width: 2; stroke-linecap: round"/>
   </g>
   <g id="patch_14">
    <path d="M 479.66281 212.795476 
Q 479.66281 205.659556 479.66281 200.759704 
" clip-path="url(#pa517a022df)" style="fill: none; stroke: #808080; stroke-opacity: 0.8; stroke-width: 2; stroke-linecap: round"/>
    <path d="M 475.66281 208.759704 
L 479.66281 200.759704 
L 483.66281 208.759704 
L 475.66281 208.759704 
z
" clip-path="url(#pa517a022df)" style="fill: #808080; fill-opacity: 0.8; stroke: #808080; stroke-opacity: 0.8; stroke-width: 2; stroke-linecap: round"/>
   </g>
   <g id="patch_15">
    <path d="M 133.741562 345.819135 
Q 297.041506 276.284966 458.284124 207.626819 
" clip-path="url(#pa517a022df)" style="fill: none; stroke: #808080; stroke-opacity: 0.8; stroke-width: 2; stroke-linecap: round"/>
    <path d="M 449.356539 207.080716 
L 458.284124 207.626819 
L 452.490691 214.441225 
L 449.356539 207.080716 
z
" clip-path="url(#pa517a022df)" style="fill: #808080; fill-opacity: 0.8; stroke: #808080; stroke-opacity: 0.8; stroke-width: 2; stroke-linecap: round"/>
   </g>
   <g id="PathCollection_1">
    <defs>
     <path id="C0_0_0d63500a63" d="M 0 22.36068 
C 5.930122 22.36068 11.618159 20.004617 15.811388 15.811388 
C 20.004617 11.618159 22.36068 5.930122 22.36068 -0 
C 22.36068 -5.930122 20.004617 -11.618159 15.811388 -15.811388 
C 11.618159 -20.004617 5.930122 -22.36068 0 -22.36068 
C -5.930122 -22.36068 -11.618159 -20.004617 -15.811388 -15.811388 
C -20.004617 -11.618159 -22.36068 -5.930122 -22.36068 0 
C -22.36068 5.930122 -20.004617 11.618159 -15.811388 15.811388 
C -11.618159 20.004617 -5.930122 22.36068 0 22.36068 
z
"/>
    </defs>
    <g clip-path="url(#pa517a022df)">
     <use xlink:href="#C0_0_0d63500a63" x="479.66281" y="198.523636" style="fill: #87ceeb; fill-opacity: 0.8; stroke: #87ceeb; stroke-opacity: 0.8"/>
    </g>
    <g clip-path="url(#pa517a022df)">
     <use xlink:href="#C0_0_0d63500a63" x="110.73719" y="80.705455" style="fill: #87ceeb; fill-opacity: 0.8; stroke: #87ceeb; stroke-opacity: 0.8"/>
    </g>
    <g clip-path="url(#pa517a022df)">
     <use xlink:href="#C0_0_0d63500a63" x="110.73719" y="119.978182" style="fill: #87ceeb; fill-opacity: 0.8; stroke: #87ceeb; stroke-opacity: 0.8"/>
    </g>
    <g clip-path="url(#pa517a022df)">
     <use xlink:href="#C0_0_0d63500a63" x="110.73719" y="159.250909" style="fill: #87ceeb; fill-opacity: 0.8; stroke: #87ceeb; stroke-opacity: 0.8"/>
    </g>
    <g clip-path="url(#pa517a022df)">
     <use xlink:href="#C0_0_0d63500a63" x="110.73719" y="198.523636" style="fill: #87ceeb; fill-opacity: 0.8; stroke: #87ceeb; stroke-opacity: 0.8"/>
    </g>
    <g clip-path="url(#pa517a022df)">
     <use xlink:href="#C0_0_0d63500a63" x="110.73719" y="237.796364" style="fill: #87ceeb; fill-opacity: 0.8; stroke: #87ceeb; stroke-opacity: 0.8"/>
    </g>
    <g clip-path="url(#pa517a022df)">
     <use xlink:href="#C0_0_0d63500a63" x="110.73719" y="277.069091" style="fill: #87ceeb; fill-opacity: 0.8; stroke: #87ceeb; stroke-opacity: 0.8"/>
    </g>
    <g clip-path="url(#pa517a022df)">
     <use xlink:href="#C0_0_0d63500a63" x="110.73719" y="316.341818" style="fill: #87ceeb; fill-opacity: 0.8; stroke: #87ceeb; stroke-opacity: 0.8"/>
    </g>
    <g clip-path="url(#pa517a022df)">
     <use xlink:href="#C0_0_0d63500a63" x="479.66281" y="237.796364" style="fill: #87ceeb; fill-opacity: 0.8; stroke: #87ceeb; stroke-opacity: 0.8"/>
    </g>
    <g clip-path="url(#pa517a022df)">
     <use xlink:href="#C0_0_0d63500a63" x="110.73719" y="355.614545" style="fill: #87ceeb; fill-opacity: 0.8; stroke: #87ceeb; stroke-opacity: 0.8"/>
    </g>
   </g>
   <g id="text_1">
    <!-- X0 -->
    <g transform="translate(103.403596 358.37392)scale(0.1 -0.1)">
     <defs>
      <path id="DejaVuSans-Bold-58" d="M 3188 2381 
L 4806 0 
L 3553 0 
L 2463 1594 
L 1381 0 
L 122 0 
L 1741 2381 
L 184 4666 
L 1441 4666 
L 2463 3163 
L 3481 4666 
L 4744 4666 
L 3188 2381 
z
" transform="scale(0.015625)"/>
      <path id="DejaVuSans-Bold-30" d="M 2944 2338 
Q 2944 3213 2780 3570 
Q 2616 3928 2228 3928 
Q 1841 3928 1675 3570 
Q 1509 3213 1509 2338 
Q 1509 1453 1675 1090 
Q 1841 728 2228 728 
Q 2613 728 2778 1090 
Q 2944 1453 2944 2338 
z
M 4147 2328 
Q 4147 1169 3647 539 
Q 3147 -91 2228 -91 
Q 1306 -91 806 539 
Q 306 1169 306 2328 
Q 306 3491 806 4120 
Q 1306 4750 2228 4750 
Q 3147 4750 3647 4120 
Q 4147 3491 4147 2328 
z
" transform="scale(0.015625)"/>
     </defs>
     <use xlink:href="#DejaVuSans-Bold-58"/>
     <use xlink:href="#DejaVuSans-Bold-30" x="77.099609"/>
    </g>
   </g>
   <g id="text_2">
    <!-- Z1 -->
    <g transform="translate(103.632503 319.101193)scale(0.1 -0.1)">
     <defs>
      <path id="DejaVuSans-Bold-5a" d="M 359 4666 
L 4281 4666 
L 4281 3938 
L 1778 909 
L 4353 909 
L 4353 0 
L 288 0 
L 288 728 
L 2791 3756 
L 359 3756 
L 359 4666 
z
" transform="scale(0.015625)"/>
      <path id="DejaVuSans-Bold-31" d="M 750 831 
L 1813 831 
L 1813 3847 
L 722 3622 
L 722 4441 
L 1806 4666 
L 2950 4666 
L 2950 831 
L 4013 831 
L 4013 0 
L 750 0 
L 750 831 
z
" transform="scale(0.015625)"/>
     </defs>
     <use xlink:href="#DejaVuSans-Bold-5a"/>
     <use xlink:href="#DejaVuSans-Bold-31" x="72.509766"/>
    </g>
   </g>
   <g id="text_3">
    <!-- Z0 -->
    <g transform="translate(103.632503 279.828466)scale(0.1 -0.1)">
     <use xlink:href="#DejaVuSans-Bold-5a"/>
     <use xlink:href="#DejaVuSans-Bold-30" x="72.509766"/>
    </g>
   </g>
   <g id="text_4">
    <!-- W4 -->
    <g transform="translate(101.74344 240.555739)scale(0.1 -0.1)">
     <defs>
      <path id="DejaVuSans-Bold-57" d="M 191 4666 
L 1344 4666 
L 2150 1275 
L 2950 4666 
L 4109 4666 
L 4909 1275 
L 5716 4666 
L 6859 4666 
L 5759 0 
L 4372 0 
L 3525 3547 
L 2688 0 
L 1300 0 
L 191 4666 
z
" transform="scale(0.015625)"/>
      <path id="DejaVuSans-Bold-34" d="M 2356 3675 
L 1038 1722 
L 2356 1722 
L 2356 3675 
z
M 2156 4666 
L 3494 4666 
L 3494 1722 
L 4159 1722 
L 4159 850 
L 3494 850 
L 3494 0 
L 2356 0 
L 2356 850 
L 288 850 
L 288 1881 
L 2156 4666 
z
" transform="scale(0.015625)"/>
     </defs>
     <use xlink:href="#DejaVuSans-Bold-57"/>
     <use xlink:href="#DejaVuSans-Bold-34" x="110.302734"/>
    </g>
   </g>
   <g id="text_5">
    <!-- W3 -->
    <g transform="translate(101.74344 201.283011)scale(0.1 -0.1)">
     <defs>
      <path id="DejaVuSans-Bold-33" d="M 2981 2516 
Q 3453 2394 3698 2092 
Q 3944 1791 3944 1325 
Q 3944 631 3412 270 
Q 2881 -91 1863 -91 
Q 1503 -91 1142 -33 
Q 781 25 428 141 
L 428 1069 
Q 766 900 1098 814 
Q 1431 728 1753 728 
Q 2231 728 2486 893 
Q 2741 1059 2741 1369 
Q 2741 1688 2480 1852 
Q 2219 2016 1709 2016 
L 1228 2016 
L 1228 2791 
L 1734 2791 
Q 2188 2791 2409 2933 
Q 2631 3075 2631 3366 
Q 2631 3634 2415 3781 
Q 2200 3928 1806 3928 
Q 1516 3928 1219 3862 
Q 922 3797 628 3669 
L 628 4550 
Q 984 4650 1334 4700 
Q 1684 4750 2022 4750 
Q 2931 4750 3382 4451 
Q 3834 4153 3834 3553 
Q 3834 3144 3618 2883 
Q 3403 2622 2981 2516 
z
" transform="scale(0.015625)"/>
     </defs>
     <use xlink:href="#DejaVuSans-Bold-57"/>
     <use xlink:href="#DejaVuSans-Bold-33" x="110.302734"/>
    </g>
   </g>
   <g id="text_6">
    <!-- W2 -->
    <g transform="translate(101.74344 162.010284)scale(0.1 -0.1)">
     <defs>
      <path id="DejaVuSans-Bold-32" d="M 1844 884 
L 3897 884 
L 3897 0 
L 506 0 
L 506 884 
L 2209 2388 
Q 2438 2594 2547 2791 
Q 2656 2988 2656 3200 
Q 2656 3528 2436 3728 
Q 2216 3928 1850 3928 
Q 1569 3928 1234 3808 
Q 900 3688 519 3450 
L 519 4475 
Q 925 4609 1322 4679 
Q 1719 4750 2100 4750 
Q 2938 4750 3402 4381 
Q 3866 4013 3866 3353 
Q 3866 2972 3669 2642 
Q 3472 2313 2841 1759 
L 1844 884 
z
" transform="scale(0.015625)"/>
     </defs>
     <use xlink:href="#DejaVuSans-Bold-57"/>
     <use xlink:href="#DejaVuSans-Bold-32" x="110.302734"/>
    </g>
   </g>
   <g id="text_7">
    <!-- W1 -->
    <g transform="translate(101.74344 122.737557)scale(0.1 -0.1)">
     <use xlink:href="#DejaVuSans-Bold-57"/>
     <use xlink:href="#DejaVuSans-Bold-31" x="110.302734"/>
    </g>
   </g>
   <g id="text_8">
    <!-- W0 -->
    <g transform="translate(101.74344 83.46483)scale(0.1 -0.1)">
     <use xlink:href="#DejaVuSans-Bold-57"/>
     <use xlink:href="#DejaVuSans-Bold-30" x="110.302734"/>
    </g>
   </g>
   <g id="text_9">
    <!-- v0 -->
    <g transform="translate(472.924529 240.555739)scale(0.1 -0.1)">
     <defs>
      <path id="DejaVuSans-Bold-76" d="M 97 3500 
L 1216 3500 
L 2088 1081 
L 2956 3500 
L 4078 3500 
L 2700 0 
L 1472 0 
L 97 3500 
z
" transform="scale(0.015625)"/>
     </defs>
     <use xlink:href="#DejaVuSans-Bold-76"/>
     <use xlink:href="#DejaVuSans-Bold-30" x="65.185547"/>
    </g>
   </g>
   <g id="text_10">
    <!-- y -->
    <g transform="translate(476.403435 201.204886)scale(0.1 -0.1)">
     <defs>
      <path id="DejaVuSans-Bold-79" d="M 78 3500 
L 1197 3500 
L 2138 1125 
L 2938 3500 
L 4056 3500 
L 2584 -331 
Q 2363 -916 2067 -1148 
Q 1772 -1381 1288 -1381 
L 641 -1381 
L 641 -647 
L 991 -647 
Q 1275 -647 1404 -556 
Q 1534 -466 1606 -231 
L 1638 -134 
L 78 3500 
z
" transform="scale(0.015625)"/>
     </defs>
     <use xlink:href="#DejaVuSans-Bold-79"/>
    </g>
   </g>
  </g>
 </g>
 <defs>
  <clipPath id="pa517a022df">
   <rect x="72" y="51.84" width="446.4" height="332.64"/>
  </clipPath>
 </defs>
</svg>
